 http://desibbrg.org/images/66952052392581364616.gif 
http://desibbrg.org/images/46895671099875355728.png 
http://desibbrg.org/images/16850487842264816260.png 
http://desibbrg.org/images/31828228496288674845.png 
http://desibbrg.org/images/62343554254449101897.png

Info - 
Cast
Gurdeep Mehndi.... Gurdeep Radhika Vaid.... Radhika Manoj Pahwa.... Kalyan
Nikki Mehndi.... Preetam

Music Director
Daler Mehndi Gurdeep Mehndi

Banner
Mehndi Production
Paragon Entertainment Group

Language... Hindi

Media Info - 
Video
ID : 1
Format : AVC
Format/Info : Advanced Video Codec
Format profile : Main@L2.1
Format settings, CABAC : Yes
Format settings, ReFrames : 4 frames
Codec ID : avc1
Codec ID/Info : Advanced Video Coding
Duration : 1h 50mn
Bit rate mode : Variable
Bit rate : 686 Kbps
Width : 640 pixels
Height : 284 pixels
Display aspect ratio : 2.25:1
Frame rate mode : Variable
Frame rate : 23.976 fps
Minimum frame rate : 7.992 fps
Maximum frame rate : 23.981 fps
Color space : YUV
Chroma subsampling : 4:2:0
Bit depth : 8 bits
Scan type : Progressive
Bits/(Pixel*Frame) : 0.157
Stream size : 542 MiB (81%)
Writing library : x264 core 120
Color primaries : BT.601 NTSC
Transfer characteristics : BT.709
Matrix coefficients : BT.601

Audio
ID : 2
Format : AAC
Format/Info : Advanced Audio Codec
Format profile : LC
Codec ID : 40
Duration : 1h 50mn
Bit rate mode : Variable
Bit rate : 160 Kbps
Maximum bit rate : 297 Kbps
Channel(s) : 2 channels
Channel positions : Front: L R
Sampling rate : 44.1 KHz
Compression mode : Lossy
Delay relative to video : 167ms
Stream size : 126 MiB (19%)

Ripper : Mercury

Seeding 24x7... Extreme Seeding...


Enjoy!
